<svg xmlns="http://www.w3.org/2000/svg" xmlns:xlink="http://www.w3.org/1999/xlink" x="0px" y="0px" width="16px" height="16px" viewBox="0 0 16 16"><g transform="translate(0, 0)"><path fill="#da3743" d="M6,1C3.1,1,0,3.2,0,7c0,3.7,6,9,6,9s6-5.3,6-9C12,3.2,8.9,1,6,1z M6,9C4.9,9,4,8.1,4,7c0-1.1,0.9-2,2-2
	s2,0.9,2,2C8,8.1,7.1,9,6,9z"></path>
<path data-color="color-2" fill="#da3743" d="M14,7c0,1-0.3,2.1-0.8,3.2C14.5,8.7,16,6.6,16,4.9C16,1.8,13.4,0,11.1,0c-0.3,0-0.7,0-1,0.1
	C12.3,1.4,14,3.8,14,7z"></path></g></svg>